#N canvas 49 41 1908 997 10;
#X floatatom -3926 -3379 5 0 0 0 F1 - -;
#X floatatom -3654 -3379 5 0 0 0 F2 - -;
#X floatatom -3817 -3379 5 0 0 0 A1 - -;
#X floatatom -3544 -3379 5 0 0 0 A2 - -;
#X floatatom -3057 -3379 5 0 0 0 F0 - -;
#X floatatom -3156 -3379 5 0 0 0 V - -;
#X floatatom -3926 -3270 5 0 0 0 - - -;
#X floatatom -3654 -3270 5 0 0 0 - - -;
#X floatatom -3544 -3219 5 0 0 0 - - -;
#X floatatom -3057 -3270 5 0 0 0 - - -;
#X floatatom -3156 -3270 5 0 0 0 - - -;
#X msg -4019 -3271 32;
#X obj -3817 -3299 expr 20*log10($f1)+63;
#X obj -3654 -3299 expr ($f1-500)/50;
#X obj -3544 -3299 expr 20*log10($f1)+63;
#X obj -3057 -3299 expr 1+16*log($f1/25)/log(2);
#X msg -3005 -3271 32;
#X obj -3156 -3299 expr ($f1*62)+1;
#X obj -4019 -3379 loadbang;
#X msg -3320 -3271 1;
#X msg -3967 -3271 1;
#X msg -3258 -3271 1;
#X text -4003 -3296 FN;
#X text -3342 -3271 F3;
#X text -3278 -3274 A3;
#X text -3963 -3293 ALF;
#X obj -3926 -3461 unpack 0 0 0 0 0 0;
#X obj -4019 -3478 inlet;
#X msg -3199 -3271 1;
#X text -3220 -3273 AHF;
#X obj -2732 -3119 textfile;
#X msg -2732 -3299 clear;
#X msg -2648 -3399 stop;
#X obj -2648 -3461 bng 15 250 50 0 empty empty Stop 17 7 0 10 -262144
-1 -1;
#X obj -2732 -3461 bng 15 250 50 0 empty empty Record 17 7 0 10 -262144
-1 -1;
#X obj -3865 -3136 pack 32 1 1 1 1 1 1 1 1 1 1 32;
#X obj -2648 -3271 list;
#X obj -2648 -3220 list trim;
#X msg -2648 -3299 add;
#X obj -3926 -3299 expr ($f1-100)/25;
#X obj -2458 -3119 list-round 1;
#X msg -2858 -3220 write \$1 cr;
#X obj -2880 -3461 bng 15 250 50 0 empty empty Save-As 17 7 0 10 -262144
-1 -1;
#X obj -2880 -3299 print;
#X symbolatom -2796 -3298 10 0 0 0 - - -;
#X obj -2880 -3399 savepanel;
#X obj -2914 -3478 inlet;
#X obj -2766 -3478 inlet;
#X obj -2682 -3478 inlet;
#X obj -3817 -3270 expr if ($f1 < 1 \, 1 \, $f1) \;;
#X obj -3544 -3271 expr if ($f1 < 1 \, 1 \, $f1) \;;
#X floatatom -3817 -3218 5 0 0 0 - - -;
#X obj -2648 -3362 metro 10;
#X connect 0 0 39 0;
#X connect 1 0 13 0;
#X connect 2 0 12 0;
#X connect 3 0 14 0;
#X connect 4 0 15 0;
#X connect 5 0 17 0;
#X connect 6 0 35 2;
#X connect 7 0 35 4;
#X connect 8 0 35 5;
#X connect 9 0 35 10;
#X connect 10 0 35 9;
#X connect 11 0 35 0;
#X connect 12 0 49 0;
#X connect 13 0 7 0;
#X connect 14 0 50 0;
#X connect 15 0 9 0;
#X connect 16 0 35 11;
#X connect 17 0 10 0;
#X connect 18 0 11 0;
#X connect 18 0 20 0;
#X connect 18 0 21 0;
#X connect 18 0 19 0;
#X connect 18 0 16 0;
#X connect 18 0 28 0;
#X connect 19 0 35 7;
#X connect 20 0 35 1;
#X connect 21 0 35 6;
#X connect 26 0 0 0;
#X connect 26 1 2 0;
#X connect 26 2 1 0;
#X connect 26 3 3 0;
#X connect 26 4 5 0;
#X connect 26 5 4 0;
#X connect 27 0 26 0;
#X connect 27 0 18 0;
#X connect 28 0 35 8;
#X connect 31 0 30 0;
#X connect 32 0 52 0;
#X connect 33 0 32 0;
#X connect 33 0 44 0;
#X connect 34 0 31 0;
#X connect 34 0 52 0;
#X connect 35 0 40 0;
#X connect 36 0 37 0;
#X connect 37 0 30 0;
#X connect 38 0 36 0;
#X connect 39 0 6 0;
#X connect 40 0 36 1;
#X connect 41 0 30 0;
#X connect 42 0 45 0;
#X connect 44 0 41 0;
#X connect 45 0 43 0;
#X connect 45 0 44 0;
#X connect 46 0 42 0;
#X connect 47 0 34 0;
#X connect 48 0 33 0;
#X connect 49 0 51 0;
#X connect 50 0 8 0;
#X connect 51 0 35 3;
#X connect 52 0 38 0;
