#N canvas -8 -8 1920 997 10;
#X floatatom -3771 -2993 5 0 0 0 F1 - -;
#X floatatom -3518 -2993 5 0 0 0 F2 - -;
#X floatatom -3656 -2993 5 0 0 0 A1 - -;
#X floatatom -3407 -2993 5 0 0 0 A2 - -;
#X floatatom -2895 -2993 5 0 0 0 F0 - -;
#X floatatom -2994 -2993 5 0 0 0 V - -;
#X floatatom -3771 -2862 5 0 0 0 - - -;
#X floatatom -3518 -2862 5 0 0 0 - - -;
#X floatatom -3656 -2862 5 0 0 0 - - -;
#X floatatom -3407 -2862 5 0 0 0 - - -;
#X floatatom -2895 -2862 5 0 0 0 - - -;
#X floatatom -3162 -2862 5 0 0 0 AHF - -;
#X floatatom -2994 -2862 5 0 0 0 - - -;
#X msg -3891 -2863 32;
#X obj -3656 -2913 expr 20*log10($f1)+63;
#X obj -3518 -2913 expr ($f1-500)/50;
#X obj -3771 -2913 expr ($f1-100)/25;
#X obj -3407 -2913 expr 20*log10($f1)+63;
#X obj -2895 -2913 expr 1+16*log($f1/25)/log(2);
#X msg -2721 -2863 32;
#X obj -2994 -2913 expr ($f1*62)+1;
#X obj -3891 -2993 loadbang;
#X msg -3218 -2863 1;
#X msg -3813 -2863 1;
#X msg -3272 -2863 1;
#X text -3875 -2898 FN;
#X text -3298 -2864 F3;
#X text -3238 -2866 A3;
#X text -3809 -2885 ALF;
#X msg -3162 -2939 3500;
#X obj -3162 -2913 expr int(20*log10($f1)+63);
#X obj -3771 -3075 unpack 0 0 0 0 0 0;
#X obj -3891 -3092 inlet;
#X connect 0 0 16 0;
#X connect 1 0 15 0;
#X connect 2 0 14 0;
#X connect 3 0 17 0;
#X connect 4 0 18 0;
#X connect 5 0 20 0;
#X connect 14 0 8 0;
#X connect 15 0 7 0;
#X connect 16 0 6 0;
#X connect 17 0 9 0;
#X connect 18 0 10 0;
#X connect 20 0 12 0;
#X connect 21 0 13 0;
#X connect 21 0 23 0;
#X connect 21 0 24 0;
#X connect 21 0 22 0;
#X connect 21 0 19 0;
#X connect 21 0 29 0;
#X connect 29 0 30 0;
#X connect 30 0 11 0;
#X connect 31 0 0 0;
#X connect 31 1 2 0;
#X connect 31 2 1 0;
#X connect 31 3 3 0;
#X connect 31 4 5 0;
#X connect 31 5 4 0;
#X connect 32 0 31 0;
#X connect 32 0 21 0;
