#N canvas 780 304 1908 966 10;
#X floatatom -3945 -3379 5 0 0 0 F1 - -;
#X floatatom -3692 -3379 5 0 0 0 F2 - -;
#X floatatom -3830 -3379 5 0 0 0 A1 - -;
#X floatatom -3581 -3379 5 0 0 0 A2 - -;
#X floatatom -3243 -3379 5 0 0 0 F0 - -;
#X floatatom -3342 -3379 5 0 0 0 V - -;
#X floatatom -3945 -3248 5 0 0 0 - - -;
#X floatatom -3692 -3248 5 0 0 0 - - -;
#X floatatom -3830 -3248 5 0 0 0 - - -;
#X floatatom -3581 -3248 5 0 0 0 - - -;
#X floatatom -3243 -3248 5 0 0 0 - - -;
#X floatatom -3342 -3248 5 0 0 0 - - -;
#X msg -4065 -3249 32;
#X obj -3830 -3299 expr 20*log10($f1)+63;
#X obj -3692 -3299 expr ($f1-500)/50;
#X obj -3581 -3299 expr 20*log10($f1)+63;
#X obj -3243 -3299 expr 1+16*log($f1/25)/log(2);
#X msg -3191 -3249 32;
#X obj -3342 -3299 expr ($f1*62)+1;
#X obj -4065 -3379 loadbang;
#X msg -3441 -3249 1;
#X msg -3987 -3249 1;
#X msg -3495 -3249 1;
#X text -4049 -3284 FN;
#X text -3517 -3251 F3;
#X text -3461 -3252 A3;
#X text -3983 -3271 ALF;
#X obj -3945 -3461 unpack 0 0 0 0 0 0;
#X obj -4065 -3478 inlet;
#X msg -3385 -3249 1;
#X text -3406 -3251 AHF;
#X msg -3992 -2939 write output.pfs cr;
#X obj -3913 -2717 textfile;
#X msg -3768 -2875 clear;
#X obj -4019 -3125 metro 100;
#X msg -4029 -3164 stop;
#X obj -4062 -3150 bng 15 250 50 0 empty empty empty 17 7 0 10 -262144
-1 -1;
#X obj -4053 -3032 bng 15 250 50 0 empty empty empty 17 7 0 10 -262144
-1 -1;
#X obj -3891 -3104 pack 32 1 1 1 1 1 1 1 1 1 1 32;
#X obj -3591 -2796 list;
#X obj -3718 -2774 list trim;
#X msg -3701 -2852 add;
#X obj -3945 -3299 expr ($f1-100)/25;
#X obj -3377 -3054 list-round 1;
#X connect 0 0 42 0;
#X connect 1 0 14 0;
#X connect 2 0 13 0;
#X connect 3 0 15 0;
#X connect 4 0 16 0;
#X connect 5 0 18 0;
#X connect 6 0 38 2;
#X connect 7 0 38 4;
#X connect 8 0 38 3;
#X connect 9 0 38 5;
#X connect 10 0 38 10;
#X connect 11 0 38 9;
#X connect 12 0 38 0;
#X connect 13 0 8 0;
#X connect 14 0 7 0;
#X connect 15 0 9 0;
#X connect 16 0 10 0;
#X connect 17 0 38 11;
#X connect 18 0 11 0;
#X connect 19 0 12 0;
#X connect 19 0 21 0;
#X connect 19 0 22 0;
#X connect 19 0 20 0;
#X connect 19 0 17 0;
#X connect 19 0 29 0;
#X connect 20 0 38 7;
#X connect 21 0 38 1;
#X connect 22 0 38 6;
#X connect 27 0 0 0;
#X connect 27 1 2 0;
#X connect 27 2 1 0;
#X connect 27 3 3 0;
#X connect 27 4 5 0;
#X connect 27 5 4 0;
#X connect 28 0 27 0;
#X connect 28 0 19 0;
#X connect 29 0 38 8;
#X connect 31 0 32 0;
#X connect 33 0 32 0;
#X connect 34 0 41 0;
#X connect 35 0 34 0;
#X connect 36 0 35 0;
#X connect 36 0 31 0;
#X connect 37 0 34 0;
#X connect 37 0 33 0;
#X connect 38 0 43 0;
#X connect 39 0 40 0;
#X connect 40 0 32 0;
#X connect 41 0 39 0;
#X connect 42 0 6 0;
#X connect 43 0 39 1;
