#N canvas -8 -8 1920 997 10;
#X floatatom -6 57 5 0 0 0 F1 - -;
#X floatatom 266 57 5 0 0 0 F2 - -;
#X floatatom 103 57 5 0 0 0 A1 - -;
#X floatatom 376 57 5 0 0 0 A2 - -;
#X floatatom 671 16 5 0 0 0 F0 - -;
#X floatatom 541 16 5 0 0 0 V - -;
#X floatatom -6 166 5 0 0 0 - - -;
#X floatatom 266 166 5 0 0 0 - - -;
#X floatatom 320 238 5 0 0 0 - - -;
#X floatatom 671 125 5 0 0 0 - - -;
#X floatatom 541 137 5 0 0 0 - - -;
#X msg -99 165 32;
#X obj 103 137 expr 20*log10($f1)+63;
#X obj 266 137 expr ($f1-500)/50;
#X obj 376 137 expr 20*log10($f1)+63;
#X obj 671 96 expr 1+16*log($f1/25)/log(2);
#X msg 723 124 32;
#X obj -99 57 loadbang;
#X msg -47 165 1;
#X text -83 140 FN;
#X text -43 143 ALF;
#X obj -99 -42 inlet;
#X msg 513 137 1;
#X text 511 123 AHF;
#X obj 321 694 textfile;
#X msg 321 514 clear;
#X msg 405 414 stop;
#X obj 405 352 bng 15 250 50 0 empty empty Stop 17 7 0 10 -262144 -1
-1;
#X obj 321 352 bng 15 250 50 0 empty empty Record 17 7 0 10 -262144
-1 -1;
#X obj 55 300 pack 32 1 1 1 1 1 1 1 1 1 1 32;
#X obj 405 542 list;
#X obj 405 593 list trim;
#X msg 405 514 add;
#X obj -6 137 expr ($f1-100)/25;
#X obj 55 525 list-round 1;
#X msg 257 613 write \$1 cr;
#X obj 173 352 bng 15 250 50 0 empty empty Save-As 17 7 0 10 -262144
-1 -1;
#X obj 173 514 print;
#X symbolatom 257 515 10 0 0 0 - - -;
#X obj 173 414 savepanel;
#X obj 139 335 inlet;
#X obj 287 335 inlet;
#X obj 371 335 inlet;
#X obj 103 166 expr if ($f1 < 1 \, 1 \, $f1) \;;
#X obj 376 165 expr if ($f1 < 1 \, 1 \, $f1) \;;
#X floatatom 103 218 5 0 0 0 - - -;
#X obj 405 451 metro 10;
#X obj 541 96 expr $i2*(($f1*62)+1);
#X obj 510 352 tgl 15 0 empty empty Whispered 17 7 0 10 -262144 -1
-1 0 1;
#X obj 476 335 inlet;
#X obj 510 497 expr abs($i1-1);
#X text 266 -16 This part combines the parameters into one vector.
;
#X text -41 674 This part saves the contents of the list to a .pfs
file.;
#X text 523 555 This part takes a snapshot of a vector every 10 milliseconds
\, rounds all of the components to the nearest integer and writes it
to a line in the list.;
#X floatatom 389 190 5 0 0 0 F3 - -;
#X floatatom 499 190 5 0 0 0 A3 - -;
#X floatatom 389 299 5 0 0 0 - - -;
#X obj 504 268 expr 20*log10($f1)+63;
#X obj 499 298 expr if ($f1 < 1 \, 1 \, $f1) \;;
#X obj 389 270 expr ($f1-1300)/50;
#X obj -6 -25 unpack 0 0 0 0 0 0 0 0;
#X connect 0 0 33 0;
#X connect 1 0 13 0;
#X connect 2 0 12 0;
#X connect 3 0 14 0;
#X connect 4 0 15 0;
#X connect 5 0 47 0;
#X connect 6 0 29 2;
#X connect 7 0 29 4;
#X connect 8 0 29 5;
#X connect 9 0 29 10;
#X connect 10 0 29 9;
#X connect 11 0 29 0;
#X connect 12 0 43 0;
#X connect 13 0 7 0;
#X connect 14 0 44 0;
#X connect 15 0 9 0;
#X connect 16 0 29 11;
#X connect 17 0 11 0;
#X connect 17 0 18 0;
#X connect 17 0 16 0;
#X connect 17 0 22 0;
#X connect 18 0 29 1;
#X connect 21 0 17 0;
#X connect 21 0 60 0;
#X connect 22 0 29 8;
#X connect 25 0 24 0;
#X connect 26 0 46 0;
#X connect 27 0 26 0;
#X connect 27 0 38 0;
#X connect 28 0 25 0;
#X connect 28 0 46 0;
#X connect 29 0 34 0;
#X connect 30 0 31 0;
#X connect 31 0 24 0;
#X connect 32 0 30 0;
#X connect 33 0 6 0;
#X connect 34 0 30 1;
#X connect 35 0 24 0;
#X connect 36 0 39 0;
#X connect 38 0 35 0;
#X connect 39 0 37 0;
#X connect 39 0 38 0;
#X connect 40 0 36 0;
#X connect 41 0 28 0;
#X connect 42 0 27 0;
#X connect 43 0 45 0;
#X connect 44 0 8 0;
#X connect 45 0 29 3;
#X connect 46 0 32 0;
#X connect 47 0 10 0;
#X connect 48 0 50 0;
#X connect 49 0 48 0;
#X connect 50 0 47 1;
#X connect 54 0 59 0;
#X connect 55 0 57 0;
#X connect 56 0 29 6;
#X connect 57 0 58 0;
#X connect 58 0 29 7;
#X connect 59 0 56 0;
#X connect 60 0 0 0;
#X connect 60 1 2 0;
#X connect 60 2 1 0;
#X connect 60 3 3 0;
#X connect 60 4 54 0;
#X connect 60 5 55 0;
#X connect 60 6 5 0;
#X connect 60 7 4 0;
