#N canvas 11 138 1908 997 24;
#X floatatom 32 117 5 0 0 0 - - -;
#X floatatom 192 145 5 0 0 0 - - -;
#X obj 33 59 bp~ 300 50;
#X obj 191 82 bp~ 700 50;
#X floatatom 478 137 5 0 0 0 - - -;
#X floatatom 524 134 5 0 0 0 - - -;
#X obj 466 69 bp~ 800 50;
#X obj 32 87 env~ 8192;
#X obj 192 115 env~ 8192;
#X obj 32 151 /;
#X floatatom 32 180 5 0 0 0 - - -;
#X obj 101 -29 hip~ 300;
#X obj 192 42 lop~ 700;
#X obj 478 181 /;
#X floatatom 478 214 5 0 0 0 - - -;
#X floatatom 32 333 16 0 0 0 - - -;
#X obj 32 225 - 1.05;
#X floatatom 33 495 16 0 0 0 - - -;
#X floatatom 33 435 16 0 0 0 - - -;
#X obj 33 466 + 137;
#X obj 33 401 -;
#X obj 32 255 * 1792.5;
#X obj 32 366 swap 358.5;
#X obj 32 303 clip -358.5 358.5;
#X obj 99 -62 inlet~;
#X obj 33 527 outlet;
#X obj 520 91 env~ 8192;
#X obj 478 104 env~ 8192;
#X obj 542 45 bp~ 2400 50;
#X obj 355 -19 hip~ 800;
#X obj 473 14 lop~ 2400;
#X floatatom 473 323 5 0 0 0 - - -;
#X obj 280 420 outlet;
#X obj 551 274 -;
#X floatatom 551 424 5 0 0 0 - - -;
#X obj 551 302 / 8;
#X floatatom 551 330 5 0 0 0 - - -;
#X obj 551 395 + 654;
#X obj 551 367 * 1742;
#X obj 478 247 - 1;
#X obj 478 281 * 20;
#X obj 486 371 + 4;
#X obj 552 246 swap 8;
#X floatatom 280 241 5 0 0 0 - - -;
#X obj 280 272 - 60;
#X obj 182 209 env~ 8192;
#X obj 280 302 / 50;
#X floatatom 631 92 5 0 0 0 - - -;
#X obj 631 123 - 60;
#X obj 651 -10 env~ 8192;
#X obj 631 153 / 50;
#X obj 571 470 outlet;
#X obj 649 256 outlet;
#X obj 280 358 clip 0 1;
#X floatatom 280 340 5 0 0 0 - - -;
#X obj 632 219 clip 0 1;
#X floatatom 632 181 5 0 0 0 - - -;
#X text 201 18 This part calculates F1;
#X text 193 173 This part calculates A1;
#X text 652 -41 This part calculates A2;
#X text 300 -53 This part calculates F2;
#X floatatom 732 228 5 0 0 0 - - -;
#X floatatom 873 235 5 0 0 0 - - -;
#X obj 732 198 env~ 8192;
#X obj 873 205 env~ 8192;
#X obj 732 262 /;
#X floatatom 732 291 5 0 0 0 - - -;
#X text 844 303 This part calculates A3;
#X text 834 74 This part calculates F3;
#X obj 732 345 * 4056;
#X obj 821 113 lop~ 3500;
#X obj 809 21 hip~ 2200;
#X obj 733 170 bp~ 2200 50;
#X obj 872 172 bp~ 3500 50;
#X obj 713 440 outlet;
#X floatatom 718 396 5 0 0 0 - - -;
#X floatatom 968 399 5 0 0 0 - - -;
#X obj 972 441 - 60;
#X obj 831 361 env~ 8192;
#X obj 1037 352 / 50;
#X obj 1038 418 clip 0 1;
#X floatatom 1038 380 5 0 0 0 - - -;
#X obj 1035 475 outlet;
#X connect 0 0 9 0;
#X connect 1 0 9 1;
#X connect 2 0 7 0;
#X connect 3 0 8 0;
#X connect 4 0 13 0;
#X connect 5 0 13 1;
#X connect 6 0 27 0;
#X connect 7 0 0 0;
#X connect 8 0 1 0;
#X connect 9 0 10 0;
#X connect 10 0 16 0;
#X connect 11 0 12 0;
#X connect 11 0 71 0;
#X connect 12 0 2 0;
#X connect 12 0 3 0;
#X connect 12 0 45 0;
#X connect 13 0 14 0;
#X connect 14 0 39 0;
#X connect 15 0 22 0;
#X connect 16 0 21 0;
#X connect 17 0 25 0;
#X connect 18 0 19 0;
#X connect 19 0 17 0;
#X connect 20 0 18 0;
#X connect 21 0 23 0;
#X connect 22 0 20 0;
#X connect 22 1 20 1;
#X connect 23 0 15 0;
#X connect 24 0 11 0;
#X connect 24 0 29 0;
#X connect 26 0 5 0;
#X connect 27 0 4 0;
#X connect 28 0 26 0;
#X connect 29 0 30 0;
#X connect 30 0 6 0;
#X connect 30 0 28 0;
#X connect 30 0 49 0;
#X connect 31 0 41 0;
#X connect 33 0 35 0;
#X connect 34 0 51 0;
#X connect 35 0 36 0;
#X connect 36 0 38 0;
#X connect 37 0 34 0;
#X connect 38 0 37 0;
#X connect 39 0 40 0;
#X connect 40 0 31 0;
#X connect 41 0 42 0;
#X connect 42 0 33 0;
#X connect 42 1 33 1;
#X connect 43 0 44 0;
#X connect 44 0 46 0;
#X connect 45 0 43 0;
#X connect 46 0 54 0;
#X connect 47 0 48 0;
#X connect 48 0 50 0;
#X connect 49 0 47 0;
#X connect 50 0 56 0;
#X connect 53 0 32 0;
#X connect 54 0 53 0;
#X connect 55 0 52 0;
#X connect 56 0 55 0;
#X connect 61 0 65 0;
#X connect 62 0 65 1;
#X connect 63 0 61 0;
#X connect 64 0 62 0;
#X connect 65 0 66 0;
#X connect 66 0 69 0;
#X connect 69 0 75 0;
#X connect 70 0 72 0;
#X connect 70 0 73 0;
#X connect 70 0 78 0;
#X connect 71 0 70 0;
#X connect 72 0 63 0;
#X connect 73 0 64 0;
#X connect 75 0 74 0;
#X connect 76 0 77 0;
#X connect 77 0 79 0;
#X connect 78 0 76 0;
#X connect 79 0 81 0;
#X connect 80 0 82 0;
#X connect 81 0 80 0;
