#N canvas 475 77 1908 997 24;
#X obj 253 79 adc~;
#X obj 390 160 formant_reader;
#X floatatom 214 394 5 0 0 0 - - -;
#X floatatom 361 345 5 0 0 0 - - -;
#X floatatom 455 400 5 0 0 0 - - -;
#X floatatom 602 351 5 0 0 0 - - -;
#X floatatom 689 294 5 0 0 0 - - -;
#X floatatom 836 245 5 0 0 0 - - -;
#X text 482 -3 Inlets: Audio;
#X text 494 82 Outlets: F1 \, A1 \, F2 \, A2 \, F3 \, A3 in order;
#X connect 0 0 1 0;
#X connect 1 0 2 0;
#X connect 1 1 3 0;
#X connect 1 2 4 0;
#X connect 1 3 5 0;
#X connect 1 4 6 0;
#X connect 1 5 7 0;
