#N canvas 11 138 1908 997 24;
#X floatatom 32 333 16 0 0 0 - - -;
#X obj 32 225 - 1.05;
#X floatatom 33 495 16 0 0 0 - - -;
#X floatatom 33 435 16 0 0 0 - - -;
#X obj 33 466 + 137;
#X obj 33 401 -;
#X obj 32 255 * 1792.5;
#X obj 32 366 swap 358.5;
#X obj 32 303 clip -358.5 358.5;
#X obj 99 -62 inlet~;
#X obj 33 527 outlet;
#X floatatom 473 323 5 0 0 0 - - -;
#X obj 281 541 outlet;
#X obj 551 274 -;
#X floatatom 551 424 5 0 0 0 - - -;
#X obj 551 302 / 8;
#X floatatom 551 330 5 0 0 0 - - -;
#X obj 551 395 + 654;
#X obj 551 367 * 1742;
#X obj 478 247 - 1;
#X obj 478 281 * 20;
#X obj 486 371 + 4;
#X obj 558 216 swap 8;
#X obj 571 470 outlet;
#X obj 649 256 outlet;
#X obj 713 440 outlet;
#X obj 1035 475 outlet;
#X obj 38 106 formant_freq_amp 300 700 1;
#X obj 414 97 formant_freq_amp 800 2400 1;
#X obj 807 73 formant_freq_amp 2200 2500 4056;
#X connect 0 0 7 0;
#X connect 1 0 6 0;
#X connect 2 0 10 0;
#X connect 3 0 4 0;
#X connect 4 0 2 0;
#X connect 5 0 3 0;
#X connect 6 0 8 0;
#X connect 7 0 5 0;
#X connect 7 1 5 1;
#X connect 8 0 0 0;
#X connect 9 0 27 0;
#X connect 9 0 28 0;
#X connect 9 0 29 0;
#X connect 11 0 21 0;
#X connect 13 0 15 0;
#X connect 14 0 23 0;
#X connect 15 0 16 0;
#X connect 16 0 18 0;
#X connect 17 0 14 0;
#X connect 18 0 17 0;
#X connect 19 0 20 0;
#X connect 20 0 11 0;
#X connect 21 0 22 0;
#X connect 22 0 13 0;
#X connect 22 1 13 1;
#X connect 27 0 1 0;
#X connect 27 1 12 0;
#X connect 28 0 19 0;
#X connect 28 1 24 0;
#X connect 29 0 25 0;
#X connect 29 1 26 0;
