#N canvas -10 0 958 1004 24;
#X obj -372 -116 abs;
#X obj -268 -116 abs;
#X obj -372 -90 /;
#X obj -372 -142 env~ 8192;
#X obj -268 -142 env~ 8192;
#X obj -372 -64 * 600;
#X obj -324 -218 hip~ 300;
#X obj -324 -195 lop~ 700;
#X obj -372 -168 bp~ 300 2;
#X obj -268 -168 bp~ 700 2;
#X obj -60 -116 abs;
#X obj 44 -116 abs;
#X obj -60 -142 env~ 8192;
#X obj 44 -142 env~ 8192;
#X obj -14 -194 lop~ 2400;
#X obj -60 -168 bp~ 800 2;
#X obj 44 -168 bp~ 2400 2;
#X obj -60 -90 /;
#X obj -324 -245 inlet~;
#X obj -60 -64 * 1600;
#X obj -372 -38 clip 235 850;
#X obj -60 -38 clip 595 2400;
#X obj -14 -220 hip~ 800;
#X obj -165 -142 - 60;
#X obj -164 -168 env~ 8192;
#X obj -165 -116 / 50;
#X obj -165 -90 clip 0 1;
#X floatatom -372 -12 8 0 0 0 - - -;
#X floatatom -165 -12 8 0 0 0 - - -;
#X obj 159 -142 - 60;
#X obj 159 -168 env~ 8192;
#X obj 159 -116 / 50;
#X obj 159 -90 clip 0 1;
#X floatatom 159 -12 8 0 0 0 - - -;
#X floatatom -60 -12 8 0 0 0 - - -;
#X obj -372 13 outlet;
#X obj -165 13 outlet;
#X obj -60 13 outlet;
#X obj 159 13 outlet;
#X connect 0 0 2 0;
#X connect 1 0 2 1;
#X connect 2 0 5 0;
#X connect 3 0 0 0;
#X connect 4 0 1 0;
#X connect 5 0 20 0;
#X connect 6 0 7 0;
#X connect 7 0 8 0;
#X connect 7 0 9 0;
#X connect 7 0 24 0;
#X connect 8 0 3 0;
#X connect 9 0 4 0;
#X connect 10 0 17 0;
#X connect 11 0 17 1;
#X connect 12 0 10 0;
#X connect 13 0 11 0;
#X connect 14 0 15 0;
#X connect 14 0 16 0;
#X connect 14 0 30 0;
#X connect 15 0 12 0;
#X connect 16 0 13 0;
#X connect 17 0 19 0;
#X connect 18 0 6 0;
#X connect 18 0 22 0;
#X connect 19 0 21 0;
#X connect 20 0 27 0;
#X connect 21 0 34 0;
#X connect 22 0 14 0;
#X connect 23 0 25 0;
#X connect 24 0 23 0;
#X connect 25 0 26 0;
#X connect 26 0 28 0;
#X connect 27 0 35 0;
#X connect 28 0 36 0;
#X connect 29 0 31 0;
#X connect 30 0 29 0;
#X connect 31 0 32 0;
#X connect 32 0 33 0;
#X connect 33 0 38 0;
#X connect 34 0 37 0;
