#N canvas 0 0 1908 997 24;
#X obj -1448 -632 inlet~;
#X floatatom -1495 -343 5 0 0 0 - - -;
#X floatatom -1377 -334 5 0 0 0 - - -;
#X obj -1495 -373 env~ 8192;
#X obj -1377 -368 env~ 8192;
#X obj -1495 -309 /;
#X floatatom -1495 -280 5 0 0 0 - - -;
#X obj -1495 -118 outlet;
#X floatatom -1495 -175 5 0 0 0 - - -;
#X floatatom -1260 -401 5 0 0 0 - - -;
#X obj -1260 -369 - 60;
#X obj -1260 -458 env~ 8192;
#X obj -1260 -331 / 50;
#X obj -1260 -262 clip 0 1;
#X floatatom -1260 -297 5 0 0 0 - - -;
#X obj -1260 -170 outlet;
#X text -1423 -524 Formant Frequency Range;
#X text -1246 -209 Amplitude of Formant Frequency;
#X obj -1448 -577 hip~ \$1;
#X obj -1436 -485 lop~ \$2;
#X obj -1495 -226 * \$3;
#X obj -1494 -401 bp~ \$1 50;
#X obj -1378 -401 bp~ \$2 50;
#X connect 0 0 18 0;
#X connect 1 0 5 0;
#X connect 2 0 5 1;
#X connect 3 0 1 0;
#X connect 4 0 2 0;
#X connect 5 0 6 0;
#X connect 6 0 20 0;
#X connect 8 0 7 0;
#X connect 9 0 10 0;
#X connect 10 0 12 0;
#X connect 11 0 9 0;
#X connect 12 0 14 0;
#X connect 13 0 15 0;
#X connect 14 0 13 0;
#X connect 18 0 19 0;
#X connect 19 0 11 0;
#X connect 19 0 21 0;
#X connect 19 0 22 0;
#X connect 20 0 8 0;
#X connect 21 0 3 0;
#X connect 22 0 4 0;
