#N canvas 512 16 1908 997 24;
#X floatatom 29 304 5 0 0 0 - - -;
#X floatatom 100 305 5 0 0 0 - - -;
#X obj 30 190 bp~ 300 50;
#X obj 99 242 bp~ 700 50;
#X floatatom 332 299 5 0 0 0 - - -;
#X floatatom 378 296 5 0 0 0 - - -;
#X obj 186 130 bp~ 800 50;
#X obj 29 274 env~ 8192;
#X obj 100 275 env~ 8192;
#X obj 29 377 /;
#X floatatom 29 406 5 0 0 0 - - -;
#X obj 98 12 hip~ 300;
#X obj 99 61 lop~ 700;
#X obj 332 343 /;
#X floatatom 332 396 5 0 0 0 - - -;
#X floatatom 29 559 16 0 0 0 - - -;
#X obj 29 451 - 1.05;
#X floatatom 29 745 16 0 0 0 - - -;
#X floatatom 29 685 16 0 0 0 - - -;
#X obj 29 716 + 137;
#X obj 29 651 -;
#X obj 29 481 * 1792.5;
#X obj 29 592 swap 358.5;
#X obj 29 529 clip -358.5 358.5;
#X obj 99 -62 inlet~;
#X obj 29 777 outlet;
#X obj 352 253 env~ 8192;
#X obj 332 266 env~ 8192;
#X obj 352 227 bp~ 2400 50;
#X obj 185 41 hip~ 800;
#X obj 187 72 lop~ 2400;
#X floatatom 327 544 5 0 0 0 - - -;
#X obj 198 865 outlet;
#X obj 324 679 -;
#X floatatom 324 829 5 0 0 0 - - -;
#X obj 324 707 / 8;
#X floatatom 324 735 5 0 0 0 - - -;
#X obj 324 800 + 654;
#X obj 324 772 * 1742;
#X obj 332 445 - 1;
#X obj 332 479 * 20;
#X obj 325 598 + 4;
#X obj 325 651 swap 8;
#X text 626 150 Author: Jack Cheng Ding Han;
#X floatatom 216 645 5 0 0 0 - - -;
#X obj 216 676 - 60;
#X obj 216 615 env~ 8192;
#X obj 216 706 / 50;
#X floatatom 1053 641 5 0 0 0 - - -;
#X obj 1053 672 - 60;
#X obj 1053 611 env~ 8192;
#X obj 1053 702 / 50;
#X obj 327 881 outlet;
#X obj 1012 779 outlet;
#X obj 215 806 clip 0 1;
#X floatatom 215 768 5 0 0 0 - - -;
#X obj 750 678 clip 0 1;
#X floatatom 750 640 5 0 0 0 - - -;
#X connect 0 0 9 0;
#X connect 1 0 9 1;
#X connect 2 0 7 0;
#X connect 3 0 8 0;
#X connect 4 0 13 0;
#X connect 5 0 13 1;
#X connect 6 0 27 0;
#X connect 7 0 0 0;
#X connect 8 0 1 0;
#X connect 9 0 10 0;
#X connect 10 0 16 0;
#X connect 11 0 12 0;
#X connect 12 0 2 0;
#X connect 12 0 3 0;
#X connect 12 0 46 0;
#X connect 13 0 14 0;
#X connect 14 0 39 0;
#X connect 15 0 22 0;
#X connect 16 0 21 0;
#X connect 17 0 25 0;
#X connect 18 0 19 0;
#X connect 19 0 17 0;
#X connect 20 0 18 0;
#X connect 21 0 23 0;
#X connect 22 0 20 0;
#X connect 22 1 20 1;
#X connect 23 0 15 0;
#X connect 24 0 11 0;
#X connect 24 0 29 0;
#X connect 26 0 5 0;
#X connect 27 0 4 0;
#X connect 28 0 26 0;
#X connect 29 0 30 0;
#X connect 30 0 6 0;
#X connect 30 0 28 0;
#X connect 30 0 50 0;
#X connect 31 0 41 0;
#X connect 33 0 35 0;
#X connect 34 0 52 0;
#X connect 35 0 36 0;
#X connect 36 0 38 0;
#X connect 37 0 34 0;
#X connect 38 0 37 0;
#X connect 39 0 40 0;
#X connect 40 0 31 0;
#X connect 41 0 42 0;
#X connect 42 0 33 0;
#X connect 42 1 33 1;
#X connect 44 0 45 0;
#X connect 45 0 47 0;
#X connect 46 0 44 0;
#X connect 47 0 55 0;
#X connect 48 0 49 0;
#X connect 49 0 51 0;
#X connect 50 0 48 0;
#X connect 51 0 57 0;
#X connect 54 0 32 0;
#X connect 55 0 54 0;
#X connect 56 0 53 0;
#X connect 57 0 56 0;
