#N canvas 953 0 958 988 10;
#X obj -14332 -30801 filemaker;
#X obj -14572 -31042 formant_reader;
#X obj -14609 -31145 adc~;
#X obj -14573 -31288 bng 15 250 50 0 empty empty Open -24 -12 0 24
-262144 -1 -1;
#X obj -14330 -31137 multiplex~;
#X obj -14433 -31288 bng 15 250 50 0 empty empty Analyse -24 -12 0
24 -262144 -1 -1;
#N canvas 172 195 958 988 fileloader 0;
#X obj -1866 -23314 openpanel;
#X msg -1766 -23069 open \$1;
#X obj -1679 -23260 readsf~;
#X obj -1866 -23376 bng 15 250 50 0 empty empty empty 17 7 0 10 -262144
-1 -1;
#X obj -1635 -23131 dac~;
#X msg -1553 -23178 1;
#X obj -1519 -23357 bng 15 250 50 0 empty empty empty 17 7 0 10 -262144
-1 -1;
#X obj -1789 -23199 print;
#X symbolatom -1776 -23120 10 0 0 0 - - -;
#X text -1518 -23388 Click this play it;
#X obj -1950 -23402 inlet;
#X obj -1627 -23383 inlet;
#X obj -1643 -22918 outlet~;
#X obj -1467 -22921 outlet;
#X text -1631 -22957 Output signal | bang if started | bang if ended
;
#X obj -1253 -22924 outlet;
#X text -1879 -23406 Click this to choose a file;
#X text -1463 -23202 AUTHOR: JACK CHENG DING HAN;
#X connect 0 0 7 0;
#X connect 0 0 8 0;
#X connect 1 0 2 0;
#X connect 2 0 4 0;
#X connect 2 0 4 1;
#X connect 2 0 12 0;
#X connect 2 1 8 0;
#X connect 2 1 15 0;
#X connect 3 0 0 0;
#X connect 5 0 2 0;
#X connect 5 0 13 0;
#X connect 6 0 5 0;
#X connect 8 0 1 0;
#X connect 10 0 3 0;
#X connect 11 0 6 0;
#X restore -14515 -31215 pd fileloader;
#X obj -14731 -31269 hradio 26 1 0 2 empty empty Live|Recorded 0 -8
0 10 -262144 -1 -1 1;
#X floatatom -14240 -31004 5 0 0 0 MIDI - -;
#X obj -14240 -30982 mtof;
#X floatatom -14240 -30949 5 0 0 0 F0 - -;
#X obj -14240 -31030 fiddle~ 2048 1 20 0;
#X obj -14368 -30933 pack 1 1 1 1 1 1;
#X obj -14315 -31241 bng 15 250 50 0 empty empty empty 17 7 0 10 -262144
-1 -1;
#X obj -14298 -31241 bng 15 250 50 0 empty empty empty 17 7 0 10 -262144
-1 -1;
#X obj -14281 -31241 bng 15 250 50 0 empty empty empty 17 7 0 10 -262144
-1 -1;
#X connect 1 0 12 0;
#X connect 1 1 12 1;
#X connect 1 2 12 2;
#X connect 1 3 12 3;
#X connect 2 0 4 0;
#X connect 3 0 6 0;
#X connect 4 0 1 0;
#X connect 4 0 11 0;
#X connect 5 0 6 1;
#X connect 6 0 4 1;
#X connect 6 1 14 0;
#X connect 6 2 15 0;
#X connect 7 0 4 0;
#X connect 8 0 9 0;
#X connect 9 0 10 0;
#X connect 10 0 12 5;
#X connect 11 0 8 0;
#X connect 12 0 0 0;
#X connect 13 0 0 1;
#X connect 14 0 0 2;
#X connect 15 0 0 3;
