#N canvas 131 29 601 336 10;
#N canvas 147 267 958 988 (subpatch) 0;
#X obj 0 0 cnv 15 597 208 empty empty PREFERENCES 20 12 0 14 -262144
-1 0;
#X obj 295 307 filemaker;
#X obj 202 217 formant_reader;
#X floatatom 383 234 5 0 0 0 MIDI - -;
#X obj 383 250 mtof;
#X floatatom 383 267 5 0 0 0 F0 - -;
#X obj 383 217 fiddle~ 2048 1 20 0;
#X obj 295 217 voice_decision;
#X obj 239 107 adc~;
#X obj 296 162 multiplex~;
#N canvas 172 195 958 988 fileloader 0;
#X obj -2270 -23405 openpanel;
#X msg -2274 -23334 open \$1;
#X obj -2103 -23430 readsf~;
#X obj -2274 -23422 bng 15 250 50 0 empty empty empty 17 7 0 10 -262144
-1 -1;
#X obj -2155 -23298 dac~;
#X msg -2172 -23361 1;
#X obj -2165 -23384 bng 15 250 50 0 empty empty empty 17 7 0 10 -262144
-1 -1;
#X obj -2216 -23384 print;
#X symbolatom -2272 -23382 10 0 0 0 - - -;
#X text -2008 -23446 Click this play it;
#X obj -2274 -23448 inlet;
#X obj -2049 -23448 inlet;
#X obj -2279 -23258 outlet~;
#X obj -2172 -23258 outlet;
#X text -2258 -23278 Output signal | bang if started | bang if ended
;
#X obj -2064 -23258 outlet;
#X text -2236 -23450 Click this to choose a file;
#X connect 0 0 7 0;
#X connect 0 0 8 0;
#X connect 1 0 2 0;
#X connect 2 0 4 0;
#X connect 2 0 4 1;
#X connect 2 0 12 0;
#X connect 2 1 8 0;
#X connect 2 1 15 0;
#X connect 3 0 0 0;
#X connect 5 0 2 0;
#X connect 5 0 13 0;
#X connect 6 0 5 0;
#X connect 8 0 1 0;
#X connect 10 0 3 0;
#X connect 11 0 6 0;
#X restore 623 152 pd fileloader;
#X obj 495 0 cnv 15 102 208 empty empty RECORDED 20 12 0 14 -258113
-4032 0;
#X obj 520 78 bng 26 250 50 0 empty empty Open 0 -8 0 10 -262144 -4032
-4032;
#X obj 520 130 bng 26 250 50 0 empty empty Convert 0 -8 0 10 -262144
-4034 -4032;
#X obj 391 0 cnv 15 102 208 empty empty LIVE 20 12 0 14 -4032 -258113
0;
#X obj 468 26 hradio 26 1 0 2 empty empty empty 0 0 0 10 -258112 -4034
-4034 0;
#X obj 442 130 bng 26 250 50 0 empty empty Stop 0 -8 0 10 -262144 -1
-258113;
#X obj 442 78 bng 26 250 50 0 empty empty Record 0 -8 0 10 -262144
-258113 -258113;
#X obj 26 52 bng 26 250 50 0 empty empty empty 0 -8 0 10 -257985 -4160
-4160;
#X text 24 35 Choose the filename prior to recording/converting.;
#X obj 26 104 tgl 26 0 empty empty Whispered 0 -8 0 10 -257985 -4160
-1 0 1;
#X obj 29 156 hsl 151 26 0 100 0 0 empty empty empty 0 -8 0 10 -4160
-257985 -1 0 1;
#X floatatom 182 166 3 0 0 0 - - -;
#X text 27 139 Voicing Threshold;
#X obj 195 290 pack 1 1 1 1 1 1 1 1;
#X obj 26 290 expr abs($i1-1);
#X connect 2 0 24 0;
#X connect 2 1 24 1;
#X connect 2 2 24 2;
#X connect 2 3 24 3;
#X connect 2 4 24 4;
#X connect 2 5 24 5;
#X connect 3 0 4 0;
#X connect 4 0 5 0;
#X connect 5 0 24 7;
#X connect 6 0 3 0;
#X connect 7 0 24 6;
#X connect 8 0 9 0;
#X connect 9 0 2 0;
#X connect 9 0 7 0;
#X connect 9 0 6 0;
#X connect 10 0 9 1;
#X connect 10 1 17 0;
#X connect 10 2 16 0;
#X connect 12 0 10 0;
#X connect 13 0 10 1;
#X connect 15 0 9 0;
#X connect 16 0 1 3;
#X connect 17 0 1 2;
#X connect 18 0 1 1;
#X connect 20 0 25 0;
#X connect 21 0 22 0;
#X connect 22 0 7 1;
#X connect 24 0 1 0;
#X connect 25 0 1 4;
#X coords 0 1 1 -1 597 208 1 0 0;
#X restore 0 0 graph;
