#N canvas 0 321 1908 676 10;
#X obj -15031 -31383 adc~;
#N canvas 1360 441 450 300 snapshot100msec 0;
#X obj 74 47 snapshot~;
#X floatatom 74 76 12 0 0 0 - - -;
#X msg 90 14 bang;
#X obj 90 -19 metro 100;
#X obj 90 -51 bng 15 250 50 0 empty empty empty 17 7 0 10 -262144 -1
-1;
#X obj 90 -80 inlet;
#X obj -36 -80 inlet~;
#X obj 93 142 outlet;
#X obj 134 -80 initbang;
#X connect 0 0 1 0;
#X connect 1 0 7 0;
#X connect 2 0 0 0;
#X connect 3 0 2 0;
#X connect 4 0 3 0;
#X connect 5 0 4 0;
#X connect 6 0 0 0;
#X connect 8 0 3 0;
#X restore -14660 -31002 pd snapshot100msec;
#X floatatom -15104 -30973 5 0 0 0 - - -;
#X obj -14905 -31099 bng 15 250 50 0 empty empty empty 17 7 0 10 -262144
-1 -1;
#X obj -14597 -31232 framp~;
#X obj -14658 -31338 rfft~;
#X msg -14541 -31110 bang;
#X obj -14627 -31104 framp~;
#X obj -14540 -31055 print~ frequency;
#X obj -14525 -31080 print~ amplitude;
#X text -14504 -31110 <- print analysis;
#N canvas 172 195 958 988 fileloader 0;
#X obj -1866 -23314 openpanel;
#X msg -1766 -23069 open \$1;
#X obj -1679 -23260 readsf~;
#X obj -1866 -23376 bng 15 250 50 0 empty empty empty 17 7 0 10 -262144
-1 -1;
#X obj -1635 -23131 dac~;
#X msg -1553 -23178 1;
#X obj -1519 -23357 bng 15 250 50 0 empty empty empty 17 7 0 10 -262144
-1 -1;
#X obj -1789 -23199 print;
#X symbolatom -1776 -23120 10 0 0 0 - - -;
#X text -1518 -23388 Click this play it;
#X obj -1950 -23402 inlet;
#X obj -1627 -23383 inlet;
#X obj -1643 -22918 outlet~;
#X obj -1467 -22921 outlet;
#X text -1631 -22957 Output signal | bang if started | bang if ended
;
#X obj -1253 -22924 outlet;
#X text -1879 -23406 Click this to choose a file;
#X text -1463 -23202 AUTHOR: JACK CHENG DING HAN;
#X connect 0 0 7 0;
#X connect 0 0 8 0;
#X connect 1 0 2 0;
#X connect 2 0 4 0;
#X connect 2 0 4 1;
#X connect 2 0 12 0;
#X connect 2 1 8 0;
#X connect 2 1 15 0;
#X connect 3 0 0 0;
#X connect 5 0 2 0;
#X connect 5 0 13 0;
#X connect 6 0 5 0;
#X connect 8 0 1 0;
#X connect 10 0 3 0;
#X connect 11 0 6 0;
#X restore -15006 -31565 pd fileloader;
#X obj -14997 -31679 bng 15 250 50 0 empty empty empty 17 7 0 10 -262144
-1 -1;
#X obj -14871 -31657 bng 15 250 50 0 empty empty empty 17 7 0 10 -262144
-1 -1;
#X obj -14154 -31344 snapshot~;
#X obj -14426 -30866 wsprobe~;
#X connect 0 0 5 0;
#X connect 1 0 2 0;
#X connect 3 0 1 1;
#X connect 3 0 6 0;
#X connect 5 0 7 0;
#X connect 5 1 7 1;
#X connect 6 0 8 0;
#X connect 6 0 9 0;
#X connect 7 0 8 0;
#X connect 7 0 1 0;
#X connect 7 0 15 0;
#X connect 7 1 9 0;
#X connect 12 0 11 0;
#X connect 13 0 11 1;
