#N canvas 833 301 450 487 10;
#X obj 47 56 adc~;
#N canvas 1360 441 450 300 snapshot100msec 0;
#X obj 74 47 snapshot~;
#X floatatom 74 76 12 0 0 0 - - -;
#X msg 90 14 bang;
#X obj 90 -19 metro 100;
#X obj 90 -51 bng 15 250 50 0 empty empty empty 17 7 0 10 -262144 -1
-1;
#X obj 90 -80 inlet;
#X obj -36 -80 inlet~;
#X obj 93 142 outlet;
#X obj 134 -80 initbang;
#X connect 0 0 1 0;
#X connect 1 0 7 0;
#X connect 2 0 0 0;
#X connect 3 0 2 0;
#X connect 4 0 3 0;
#X connect 5 0 4 0;
#X connect 6 0 0 0;
#X connect 8 0 3 0;
#X restore 212 136 pd snapshot100msec;
#X floatatom 222 189 5 0 0 0 - - -;
#X connect 0 0 1 0;
#X connect 1 0 2 0;
