#N canvas 1146 514 450 300 10;
#X obj -176 -658 voicing_detector~;
#X obj -175 -706 inlet~;
#X obj -175 -567 outlet;
#X floatatom -176 -611 5 0 0 0 - - -;
#X floatatom -16 -627 5 0 0 0 - - -;
#X obj 8 -751 vsl 15 101 0 100 0 0 empty empty empty 0 -8 0 8 -262144
-1 -1 0 1;
#X obj -95 -565 block~ 1024;
#X connect 0 0 3 0;
#X connect 1 0 0 0;
#X connect 3 0 2 0;
#X connect 4 0 0 1;
#X connect 5 0 4 0;
