#N canvas 584 578 450 300 10;
#X obj -173 -681 voicing_detector~;
#X obj -173 -716 inlet~;
#X obj -173 -604 outlet;
#X floatatom -173 -652 5 0 0 0 - - -;
#X floatatom 9 -614 5 0 0 0 - - -;
#X obj -7 -703 vsl 15 101 0 100 0 0 empty empty empty 0 -8 0 8 -262144
-1 -1 0 1;
#X obj -117 -618 block~ 1024;
#X text -176 -734 Change the threshold \, 0 by default;
#X text -169 -633 1 is voiced \, 0 is unvoiced;
#X obj -62 -715 inlet;
#X connect 0 0 3 0;
#X connect 1 0 0 0;
#X connect 3 0 2 0;
#X connect 4 0 0 1;
#X connect 5 0 4 0;
#X connect 9 0 5 0;
